<!DOCTYPE svg PUBLIC "-//W3C//DTD SVG 20010904//EN" "http://www.w3.org/TR/2001/REC-SVG-20010904/DTD/svg10.dtd">
<svg version="1.0" xmlns="http://www.w3.org/2000/svg" width="566px" height="566px" viewBox="0 0 5660 5660" preserveAspectRatio="xMidYMid meet">
<g id="layer101" fill="#9000d1" stroke="none">
 <path d="M3702 4649 c-62 -12 -147 -45 -217 -84 -58 -32 -61 -33 -100 -19 -328 114 -730 128 -1064 35 -521 -145 -944 -498 -1176 -983 -239 -500 -239 -1076 0 -1576 308 -643 943 -1044 1655 -1043 484 0 936 187 1281 530 293 292 472 647 529 1051 16 109 16 391 0 500 -32 225 -116 471 -224 660 l-45 78 24 60 c119 293 -29 636 -326 756 -101 42 -235 55 -337 35z m233 -64 c299 -78 468 -414 360 -715 -32 -91 -34 -104 -16 -105 20 0 119 -182 170 -311 51 -129 96 -308 112 -445 14 -127 7 -403 -15 -519 -104 -565 -470 -1047 -978 -1290 -721 -344 -1577 -166 -2096 435 -228 264 -367 570 -418 919 -23 154 -15 438 15 590 128 636 578 1146 1191 1350 181 60 283 77 500 83 171 5 211 2 325 -17 72 -12 185 -40 252 -62 l121 -39 49 37 c52 40 133 80 192 93 59 14 173 12 236 -4z"/>
 <path d="M3695 4477 c-64 -22 -105 -46 -156 -94 l-48 -45 -91 36 c-101 42 -176 66 -202 66 -17 0 -18 -41 -18 -730 l0 -729 128 -3 127 -3 3 -52 3 -53 -316 0 -316 0 3 53 3 52 128 3 127 3 0 717 0 717 -28 13 c-17 8 -86 16 -182 19 l-155 6 0 -789 0 -789 -47 -3 c-26 -2 -57 2 -69 8 l-21 12 3 766 3 767 -29 -3 c-17 -1 -60 -10 -96 -18 l-66 -15 5 -760 5 -759 -62 0 -61 0 0 406 c0 226 -4 404 -9 402 -4 -1 -169 -186 -366 -410 -323 -368 -361 -408 -388 -408 l-30 0 6 460 c5 356 3 460 -6 460 -15 0 -111 -148 -159 -245 -336 -670 -176 -1499 384 -1993 276 -243 638 -395 981 -409 l127 -6 0 842 0 841 285 0 285 0 0 -60 0 -60 -215 0 -215 0 -2 -777 c-2 -428 -2 -780 -1 -782 5 -8 174 22 279 49 62 16 154 46 205 67 l94 38 3 763 2 762 285 0 285 0 0 -60 0 -60 -212 -2 -213 -3 -3 -652 c-1 -462 1 -653 9 -653 33 0 238 167 338 277 276 302 441 710 441 1093 l0 110 -452 2 -453 3 -3 413 -2 412 57 -30 c31 -17 75 -34 97 -37 l41 -8 -40 -5 -40 -5 -3 -92 -3 -92 341 -3 c187 -2 340 -1 340 1 0 2 -20 46 -44 97 l-45 94 -193 1 c-189 0 -192 1 -138 15 119 32 217 116 274 234 30 62 31 70 31 195 0 127 -1 132 -33 198 -42 85 -113 156 -198 198 -60 30 -78 34 -163 36 -60 2 -111 -2 -136 -10z m41 -86 c17 -10 47 -39 68 -64 29 -35 45 -46 77 -51 114 -18 216 -104 246 -205 53 -182 -122 -356 -340 -338 -163 14 -287 133 -287 274 0 108 79 210 192 251 56 19 58 29 23 98 -14 27 -25 50 -25 52 0 7 18 0 46 -17z m-2091 -1613 c8 -18 39 -97 70 -174 30 -78 60 -153 66 -168 l12 -26 281 0 281 0 74 188 c41 103 79 193 84 200 9 12 157 19 157 7 0 -3 -121 -308 -269 -678 -148 -369 -271 -680 -275 -689 -4 -13 -16 -18 -44 -18 -46 0 -26 -39 -189 365 -120 297 -288 712 -362 894 -28 69 -51 126 -51 128 0 2 34 3 75 3 75 0 75 0 90 -32z"/>
 <path d="M1840 2285 c0 -3 27 -71 61 -152 33 -82 76 -188 95 -238 63 -162 69 -176 77 -178 8 -2 215 506 224 551 l5 22 -231 0 c-127 0 -231 -2 -231 -5z"/>
 <path d="M2220 4343 c-33 -6 -189 -80 -277 -131 -96 -56 -216 -149 -288 -222 l-60 -61 -3 -414 c-1 -228 0 -415 4 -415 3 0 16 12 28 27 11 15 116 136 231 268 116 132 257 294 313 359 l102 119 0 239 c0 184 -3 238 -12 237 -7 -1 -24 -4 -38 -6z"/>
 <path d="M3662 3138 l3 -163 393 -3 c374 -2 392 -1 392 16 0 26 -18 122 -41 225 l-21 87 -364 0 -364 0 2 -162z"/>
 </g>
<g id="layer102" fill="#fffeff" stroke="none">
 <path d="M2668 4643 c17 -2 47 -2 65 0 17 2 3 4 -33 4 -36 0 -50 -2 -32 -4z"/>
 <path d="M2858 4643 c17 -2 47 -2 65 0 17 2 3 4 -33 4 -36 0 -50 -2 -32 -4z"/>
 <path d="M3518 4594 c-39 -21 -35 -28 5 -8 37 19 44 24 31 24 -5 -1 -21 -8 -36 -16z"/>
 <path d="M3235 4590 c11 -5 27 -9 35 -9 9 0 8 4 -5 9 -11 5 -27 9 -35 9 -9 0 -8 -4 5 -9z"/>
 <path d="M3699 4589 c-59 -13 -140 -53 -192 -93 l-49 -37 -121 39 c-67 22 -180 50 -252 62 -114 19 -154 22 -325 17 -217 -6 -319 -23 -500 -83 -613 -204 -1063 -714 -1191 -1350 -30 -152 -38 -436 -15 -590 70 -474 306 -878 686 -1170 391 -301 922 -423 1412 -324 711 144 1261 708 1394 1430 22 116 29 392 15 519 -16 137 -61 316 -112 445 -51 129 -150 311 -170 311 -18 1 -16 14 16 105 108 301 -61 637 -360 715 -63 16 -177 18 -236 4z m295 -138 c85 -42 156 -113 198 -198 32 -66 33 -71 33 -198 0 -125 -1 -133 -31 -195 -57 -118 -155 -202 -274 -234 -54 -14 -51 -15 138 -15 l193 -1 45 -94 c24 -51 44 -95 44 -97 0 -2 -153 -3 -340 -1 l-341 3 3 92 3 92 40 5 40 5 -41 8 c-22 3 -66 20 -97 37 l-57 30 2 -412 3 -413 453 -3 452 -2 0 -110 c0 -383 -165 -791 -441 -1093 -100 -110 -305 -277 -338 -277 -8 0 -10 191 -9 653 l3 652 213 3 212 2 0 60 0 60 -285 0 -285 0 -2 -762 -3 -763 -94 -38 c-51 -21 -143 -51 -205 -67 -105 -27 -274 -57 -279 -49 -1 2 -1 354 1 782 l2 777 215 0 215 0 0 60 0 60 -285 0 -285 0 0 -841 0 -842 -127 6 c-269 11 -565 112 -803 272 -755 509 -963 1522 -471 2287 31 49 61 88 68 88 9 0 11 -104 6 -460 l-6 -460 30 0 c27 0 65 40 388 408 197 224 362 409 366 410 5 2 9 -176 9 -402 l0 -406 61 0 62 0 -5 759 -5 760 66 15 c36 8 79 17 96 18 l29 3 -3 -767 -3 -766 21 -12 c12 -6 43 -10 69 -8 l47 3 0 789 0 789 155 -6 c96 -3 165 -11 182 -19 l28 -13 0 -717 0 -717 -127 -3 -128 -3 -3 -52 -3 -53 316 0 316 0 -3 53 -3 52 -127 3 -128 3 0 729 c0 689 1 730 18 730 26 0 101 -24 202 -66 l91 -36 48 45 c89 83 158 108 292 104 85 -2 103 -6 163 -36z m-1724 -339 l0 -239 -102 -119 c-56 -65 -197 -227 -313 -359 -115 -132 -220 -253 -231 -268 -12 -15 -25 -27 -28 -27 -4 0 -5 187 -4 415 l3 414 60 61 c114 116 266 220 449 306 81 38 111 48 154 53 9 1 12 -53 12 -237z m2139 -899 c23 -103 41 -199 41 -225 0 -17 -18 -18 -392 -16 l-393 3 -3 163 -2 162 364 0 364 0 21 -87z"/>
 <path d="M3690 4408 c0 -2 11 -25 25 -52 35 -69 33 -79 -23 -98 -113 -41 -192 -143 -192 -251 0 -64 21 -116 67 -168 170 -189 515 -115 565 121 29 142 -88 290 -251 316 -32 5 -48 16 -77 51 -21 25 -51 54 -68 64 -28 17 -46 24 -46 17z"/>
 <path d="M1480 2807 c0 -2 23 -59 51 -128 74 -182 242 -597 362 -894 163 -404 143 -365 189 -365 28 0 40 5 44 18 4 9 127 320 275 689 148 370 269 675 269 678 0 12 -148 5 -157 -7 -5 -7 -43 -97 -84 -200 l-74 -188 -281 0 -281 0 -12 26 c-6 15 -36 90 -66 168 -89 228 -72 206 -160 206 -41 0 -75 -1 -75 -3z m817 -539 c-9 -45 -216 -553 -224 -551 -8 2 -14 16 -77 178 -19 50 -62 156 -95 238 -34 81 -61 149 -61 152 0 3 104 5 231 5 l231 0 -5 -22z"/>
 <path d="M4167 4544 c26 -20 67 -57 91 -82 l44 -47 -33 43 c-31 40 -127 122 -143 122 -4 0 14 -16 41 -36z"/>
 <path d="M2008 4474 c-39 -21 -35 -28 5 -8 37 19 44 24 31 24 -5 -1 -21 -8 -36 -16z"/>
 <path d="M1928 4434 c-39 -21 -35 -28 5 -8 37 19 44 24 31 24 -5 -1 -21 -8 -36 -16z"/>
 <path d="M1713 4294 l-28 -25 33 22 c17 13 32 24 32 26 0 8 -11 1 -37 -23z"/>
 <path d="M1495 4108 l-40 -43 43 40 c39 36 47 45 39 45 -2 0 -21 -19 -42 -42z"/>
 <path d="M1349 3948 c-12 -23 -12 -23 10 -4 23 21 26 26 11 26 -5 0 -15 -10 -21 -22z"/>
 <path d="M1318 3903 c-18 -21 -31 -43 -25 -43 2 0 13 14 25 30 25 33 24 41 0 13z"/>
 <path d="M4461 3575 c0 -5 6 -21 14 -35 8 -14 14 -20 14 -15 0 6 -6 21 -14 35 -8 14 -14 21 -14 15z"/>
 <path d="M1099 3524 c-5 -15 -8 -29 -5 -31 2 -2 8 10 14 26 13 38 5 41 -9 5z"/>
 <path d="M972 3040 c0 -19 2 -27 5 -17 2 9 2 25 0 35 -3 9 -5 1 -5 -18z"/>
 <path d="M963 2900 c0 -36 2 -50 4 -32 2 17 2 47 0 65 -2 17 -4 3 -4 -33z"/>
 <path d="M4623 2905 c0 -33 2 -45 4 -27 2 18 2 45 0 60 -2 15 -4 0 -4 -33z"/>
 <path d="M963 2720 c0 -36 2 -50 4 -32 2 17 2 47 0 65 -2 17 -4 3 -4 -33z"/>
 <path d="M4623 2715 c0 -33 2 -45 4 -27 2 18 2 45 0 60 -2 15 -4 0 -4 -33z"/>
 <path d="M972 2580 c0 -19 2 -27 5 -17 2 9 2 25 0 35 -3 9 -5 1 -5 -18z"/>
 <path d="M4472 2075 c-17 -37 -14 -45 4 -12 9 16 14 31 11 33 -2 2 -9 -7 -15 -21z"/>
 <path d="M1299 1742 c5 -10 18 -25 27 -33 11 -9 9 -2 -6 19 -26 35 -36 42 -21 14z"/>
 <path d="M4254 1703 c-16 -21 -39 -51 -53 -68 l-26 -30 26 23 c27 24 94 112 85 112 -3 0 -17 -17 -32 -37z"/>
 <path d="M4105 1528 l-70 -73 73 70 c39 38 72 71 72 72 0 8 -11 -2 -75 -69z"/>
 <path d="M1495 1510 c21 -22 41 -40 44 -40 3 0 -13 18 -34 40 -21 22 -41 40 -44 40 -3 0 13 -18 34 -40z"/>
 <path d="M3984 1414 l-39 -35 43 32 c38 30 48 39 39 39 -2 0 -21 -16 -43 -36z"/>
 <path d="M3855 1314 l-30 -26 33 22 c17 12 32 23 32 26 0 7 -4 5 -35 -22z"/>
 <path d="M3630 1180 c-19 -11 -31 -19 -27 -20 11 0 67 29 67 35 0 7 -1 7 -40 -15z"/>
 <path d="M2090 1114 c0 -7 52 -25 57 -20 2 2 -10 8 -26 14 -17 6 -31 9 -31 6z"/>
 <path d="M2678 973 c17 -2 47 -2 65 0 17 2 3 4 -33 4 -36 0 -50 -2 -32 -4z"/>
 <path d="M2847 973 c18 -2 50 -2 70 0 21 2 7 4 -32 4 -38 0 -55 -2 -38 -4z"/>
 </g>

</svg>